<svg version="1.2" baseProfile="tiny-ps" xmlns="http://www.w3.org/2000/svg" viewBox="0 0 163 40" width="163" height="40">
	<title>Logga-svg</title>
	<style>
		tspan { white-space:pre }
		.s0 { fill: none;stroke: #000000 } 
		.s1 { fill: #ffffff } 
	</style>
	<path id="Background" class="s0" d="" />
	<path id="Emmas Beauty" fill-rule="evenodd" class="s1" d="m12.97 28.69c-0.84-0.54-1.46-1.2-1.86-1.98c-0.4-0.8-0.6-1.62-0.6-2.46c0-0.12 0-0.24 0-0.36c0.02-0.12 0.04-0.24 0.06-0.36c0.18-1.3 0.68-2.53 1.5-3.69c0.84-1.16 1.95-2.05 3.33-2.67c0.28-0.12 0.56-0.23 0.84-0.33c0.3-0.12 0.51-0.19 0.63-0.21c-0.36-0.72-0.54-1.46-0.54-2.22c0-0.64 0.11-1.27 0.33-1.89c0.24-0.62 0.55-1.19 0.93-1.71c0.58-0.76 1.29-1.41 2.13-1.95c0.84-0.54 1.74-0.95 2.7-1.23c0.96-0.3 1.91-0.45 2.85-0.45c0.48 0 0.96 0.04 1.44 0.12c0.5 0.06 0.96 0.19 1.38 0.39c0.5 0.22 0.86 0.5 1.08 0.84c0.24 0.34 0.36 0.7 0.36 1.08c0 0.88-0.48 1.64-1.44 2.28c-0.3 0.2-0.71 0.37-1.23 0.51c-0.5 0.14-1 0.21-1.5 0.21c-0.7 0-1.25-0.15-1.65-0.45c-0.08-0.08-0.12-0.15-0.12-0.21c0-0.06 0.03-0.1 0.09-0.12c0.06-0.04 0.1-0.05 0.12-0.03c0.52 0.24 1.08 0.36 1.68 0.36c0.9 0 1.66-0.21 2.28-0.63c0.78-0.52 1.17-1.13 1.17-1.83c0-0.3-0.09-0.58-0.27-0.84c-0.16-0.26-0.44-0.48-0.84-0.66c-0.32-0.16-0.69-0.27-1.11-0.33c-0.4-0.08-0.79-0.12-1.17-0.12c-0.98 0-1.99 0.22-3.03 0.66c-1.02 0.42-1.88 0.99-2.58 1.71c-0.5 0.54-0.95 1.23-1.35 2.07c-0.4 0.84-0.6 1.68-0.6 2.52c0 0.48 0.09 0.95 0.27 1.41c0.56-0.2 1.12-0.34 1.68-0.42c0.58-0.1 1.13-0.15 1.65-0.15c1.4 0 2.1 0.36 2.1 1.08c0 0.42-0.24 0.82-0.72 1.2c-0.48 0.36-1.16 0.54-2.04 0.54c-0.12 0-0.24 0-0.36 0c-0.12-0.02-0.24-0.04-0.36-0.06c-0.8-0.1-1.43-0.26-1.89-0.48c-0.46-0.24-0.87-0.53-1.23-0.87c-0.24 0.12-0.49 0.25-0.75 0.39c-0.26 0.12-0.53 0.29-0.81 0.51c-1.04 0.88-1.82 1.88-2.34 3c-0.52 1.12-0.78 2.2-0.78 3.24c0 1.18 0.27 2.13 0.81 2.85c0.54 0.72 1.24 1.24 2.1 1.56c0.88 0.3 1.81 0.45 2.79 0.45c1.14 0 2.24-0.17 3.3-0.51c1.24-0.4 2.43-1.02 3.57-1.86c1.14-0.84 2.02-1.93 2.64-3.27c0.22-0.5 0.33-0.95 0.33-1.35c0-0.52-0.17-0.94-0.51-1.26c-0.34-0.32-0.81-0.48-1.41-0.48c-0.08 0-0.16 0-0.24 0c-0.06 0-0.14 0.01-0.24 0.03c-0.82 0.12-1.49 0.39-2.01 0.81c-0.5 0.42-0.88 0.87-1.14 1.35c-0.26 0.48-0.46 0.9-0.6 1.26c-0.06 0.12-0.11 0.18-0.15 0.18c-0.08 0-0.12-0.1-0.12-0.3c0-0.06 0-0.12 0-0.18c0.02-0.08 0.04-0.16 0.06-0.24c0.08-0.24 0.26-0.59 0.54-1.05c0.28-0.48 0.69-0.94 1.23-1.38c0.54-0.44 1.22-0.74 2.04-0.9c0.28-0.06 0.54-0.09 0.78-0.09c0.8 0 1.45 0.23 1.95 0.69c0.5 0.44 0.75 1.01 0.75 1.71c0 0.4-0.11 0.87-0.33 1.41c-0.44 1-1.07 1.89-1.89 2.67c-0.8 0.78-1.72 1.44-2.76 1.98c-1.02 0.52-2.09 0.92-3.21 1.2c-1.12 0.26-2.21 0.39-3.27 0.39c-0.2 0-0.4 0-0.6 0c-0.18-0.02-0.36-0.04-0.54-0.06c-1.34-0.14-2.44-0.48-3.3-1.02zm9.39-11.07c0.52-0.18 0.78-0.46 0.78-0.84c0-0.22-0.13-0.41-0.39-0.57c-0.26-0.18-0.66-0.27-1.2-0.27c-0.6 0-1.16 0.04-1.68 0.12c-0.52 0.08-1.01 0.19-1.47 0.33c0.3 0.5 0.75 0.86 1.35 1.08c0.62 0.22 1.15 0.33 1.59 0.33c0.38 0 0.72-0.06 1.02-0.18zm17.49 10.02c-0.32-0.38-0.48-0.85-0.48-1.41c0-0.62 0.16-1.24 0.48-1.86c0.32-0.64 0.68-1.26 1.08-1.86c0.42-0.6 0.79-1.17 1.11-1.71c0.32-0.54 0.48-1.02 0.48-1.44c0-0.16-0.04-0.3-0.12-0.42c-0.08-0.14-0.23-0.21-0.45-0.21c-0.64 0-1.31 0.3-2.01 0.9c-0.68 0.58-1.34 1.33-1.98 2.25c-0.64 0.92-1.22 1.88-1.74 2.88c-0.5 1-0.89 1.92-1.17 2.76c-0.32-0.08-0.54-0.2-0.66-0.36c-0.1-0.18-0.15-0.37-0.15-0.57c0-0.32 0.04-0.63 0.12-0.93c0.1-0.3 0.25-0.67 0.45-1.11c0.2-0.44 0.46-1 0.78-1.68c0.32-0.7 0.7-1.6 1.14-2.7c0.06-0.16 0.1-0.3 0.12-0.42c0.02-0.12 0.03-0.23 0.03-0.33c0-0.46-0.19-0.69-0.57-0.69c-0.48 0-0.97 0.2-1.47 0.6c-0.5 0.38-0.99 0.89-1.47 1.53c-0.46 0.64-0.9 1.33-1.32 2.07c-0.42 0.74-0.8 1.47-1.14 2.19c-0.34 0.7-0.62 1.31-0.84 1.83c-0.2 0.46-0.44 0.76-0.72 0.9c-0.28 0.12-0.55 0.18-0.81 0.18c-0.08 0-0.18 0-0.3 0c-0.1-0.02-0.2-0.03-0.3-0.03c0.4-0.8 0.82-1.67 1.26-2.61c0.46-0.96 0.88-1.92 1.26-2.88c0.38-0.96 0.69-1.88 0.93-2.76c0.24-0.88 0.36-1.64 0.36-2.28c0-0.08-0.01-0.14-0.03-0.18c0-0.04 0-0.08 0-0.12c0-0.06 0.02-0.09 0.06-0.09c0.2 0 0.36 0.13 0.48 0.39c0.12 0.24 0.2 0.52 0.24 0.84c0.06 0.3 0.09 0.54 0.09 0.72c0 0.5-0.06 1.02-0.18 1.56c-0.12 0.52-0.26 0.96-0.42 1.32c0.76-1.02 1.54-1.89 2.34-2.61c0.82-0.72 1.63-1.08 2.43-1.08c0.54 0 0.93 0.11 1.17 0.33c0.24 0.22 0.36 0.53 0.36 0.93c0 0.28-0.05 0.56-0.15 0.84c-0.08 0.28-0.22 0.66-0.42 1.14c0.76-1.04 1.5-1.84 2.22-2.4c0.74-0.56 1.47-0.84 2.19-0.84c0.58 0 1.01 0.13 1.29 0.39c0.3 0.26 0.45 0.61 0.45 1.05c0 0.48-0.16 1.05-0.48 1.71c-0.3 0.64-0.65 1.31-1.05 2.01c-0.4 0.68-0.76 1.33-1.08 1.95c-0.3 0.6-0.45 1.1-0.45 1.5c0 0.22 0.05 0.42 0.15 0.6c0.1 0.18 0.28 0.27 0.54 0.27c0.34 0 0.66-0.11 0.96-0.33c0.32-0.24 0.59-0.49 0.81-0.75c0.46-0.5 0.88-1.05 1.26-1.65c0.4-0.62 0.79-1.27 1.17-1.95c0 0 0.01-0.01 0.01-0.01c0.07-0.17 0.13-0.33 0.2-0.5c0.38-0.96 0.69-1.88 0.93-2.76c0.24-0.88 0.36-1.64 0.36-2.28c0-0.08-0.01-0.14-0.03-0.18c0-0.04 0-0.08 0-0.12c0-0.06 0.02-0.09 0.06-0.09c0.2 0 0.36 0.13 0.48 0.39c0.12 0.24 0.2 0.52 0.24 0.84c0.06 0.3 0.09 0.54 0.09 0.72c0 0.5-0.06 1.02-0.18 1.56c-0.12 0.52-0.26 0.96-0.42 1.32c0.76-1.02 1.54-1.89 2.34-2.61c0.82-0.72 1.63-1.08 2.43-1.08c0.54 0 0.93 0.11 1.17 0.33c0.24 0.22 0.36 0.53 0.36 0.93c0 0.28-0.05 0.56-0.15 0.84c-0.08 0.28-0.22 0.66-0.42 1.14c0.76-1.04 1.5-1.84 2.22-2.4c0.74-0.56 1.47-0.84 2.19-0.84c0.58 0 1.01 0.13 1.29 0.39c0.3 0.26 0.45 0.61 0.45 1.05c0 0.48-0.16 1.05-0.48 1.71c-0.3 0.64-0.65 1.31-1.05 2.01c-0.4 0.68-0.76 1.33-1.08 1.95c-0.3 0.6-0.45 1.1-0.45 1.5c0 0.22 0.05 0.42 0.15 0.6c0.1 0.18 0.28 0.27 0.54 0.27c0.34 0 0.66-0.11 0.96-0.33c0.32-0.24 0.59-0.49 0.81-0.75c0.46-0.5 0.88-1.05 1.26-1.65c0.27-0.42 0.54-0.86 0.8-1.31c0.02-0.05 0.04-0.11 0.07-0.16c0.36-0.84 0.83-1.63 1.41-2.37c0.6-0.76 1.26-1.41 1.98-1.95c0.42-0.3 0.93-0.54 1.53-0.72c0.62-0.2 1.24-0.3 1.86-0.3c0.7 0 1.31 0.11 1.83 0.33c0.54 0.2 0.91 0.49 1.11 0.87c-0.42 0.54-0.85 1.21-1.29 2.01c-0.44 0.78-0.82 1.49-1.14 2.13c-0.22 0.44-0.46 0.99-0.72 1.65c-0.26 0.64-0.39 1.19-0.39 1.65c0 0.2 0.05 0.4 0.15 0.6c0.1 0.2 0.29 0.3 0.57 0.3c0.32 0 0.63-0.12 0.93-0.36c0.3-0.24 0.55-0.48 0.75-0.72c0.28-0.3 0.54-0.62 0.79-0.96c0.03-0.34 0.1-0.66 0.23-0.96c0.16-0.34 0.34-0.64 0.54-0.9c0.2-0.26 0.42-0.41 0.66-0.45c0.18-0.4 0.43-0.86 0.75-1.38c0.32-0.54 0.68-1.08 1.08-1.62c0.42-0.54 0.84-1.02 1.26-1.44c0.54-0.54 1.12-0.97 1.74-1.29c0.62-0.32 1.24-0.48 1.86-0.48c0.48 0 0.92 0.1 1.32 0.3c0.34 0.16 0.51 0.39 0.51 0.69c0 0.14-0.05 0.26-0.15 0.36c-0.08 0.1-0.17 0.15-0.27 0.15c-0.12 0-0.24-0.07-0.36-0.21c-0.22-0.28-0.59-0.49-1.11-0.63c-0.08-0.02-0.16-0.03-0.24-0.03c-0.08-0.02-0.16-0.03-0.24-0.03c-0.54 0-0.94 0.18-1.2 0.54c-0.26 0.36-0.39 0.8-0.39 1.32c0 0.5 0.11 1.08 0.33 1.74c0.22 0.64 0.33 1.36 0.33 2.16c0 0.64-0.13 1.29-0.39 1.95c-0.14 0.32-0.31 0.63-0.51 0.93c-0.18 0.3-0.41 0.57-0.69 0.81l-0.42 0.3c0.06 0.02 0.12 0.04 0.18 0.06c0.06 0 0.12 0 0.18 0c0.34 0 0.72-0.1 1.14-0.3c0.42-0.22 0.79-0.49 1.11-0.81c0.48-0.46 0.89-0.95 1.23-1.47c0.36-0.52 0.69-1.06 0.99-1.62c0.02-0.08 0.07-0.12 0.15-0.12c0.1 0 0.15 0.08 0.15 0.24c0 0.08-0.03 0.17-0.09 0.27c-0.3 0.56-0.67 1.15-1.11 1.77c-0.42 0.6-0.86 1.11-1.32 1.53c-0.36 0.32-0.75 0.56-1.17 0.72c-0.4 0.14-0.74 0.21-1.02 0.21c-0.2 0-0.36-0.02-0.48-0.06c-0.12-0.04-0.23-0.1-0.33-0.18c-0.28 0.14-0.6 0.26-0.96 0.36c-0.34 0.1-0.69 0.15-1.05 0.15c-0.42 0-0.81-0.08-1.17-0.24c-0.34-0.18-0.62-0.48-0.84-0.9c-0.11-0.25-0.18-0.52-0.22-0.8c-0.25 0.31-0.51 0.6-0.8 0.89c-0.28 0.28-0.61 0.52-0.99 0.72c-0.38 0.2-0.75 0.3-1.11 0.3c-0.64 0-1.08-0.2-1.32-0.6c-0.24-0.42-0.36-0.88-0.36-1.38c0-0.1 0.01-0.27 0.03-0.51c0.04-0.26 0.08-0.5 0.12-0.72c-0.28 0.38-0.62 0.8-1.02 1.26c-0.38 0.46-0.77 0.85-1.17 1.17c-0.64 0.52-1.22 0.78-1.74 0.78c-0.5 0-0.89-0.21-1.17-0.63c-0.26-0.42-0.39-0.95-0.39-1.59c0-0.3 0.02-0.61 0.07-0.91c-0.06 0.1-0.13 0.21-0.19 0.31c-0.4 0.62-0.89 1.22-1.47 1.8c-0.26 0.26-0.56 0.49-0.9 0.69c-0.34 0.2-0.72 0.3-1.14 0.3c-0.6 0-1.06-0.18-1.38-0.54c-0.32-0.38-0.48-0.85-0.48-1.41c0-0.62 0.16-1.24 0.48-1.86c0.32-0.64 0.68-1.26 1.08-1.86c0.42-0.6 0.79-1.17 1.11-1.71c0.32-0.54 0.48-1.02 0.48-1.44c0-0.16-0.04-0.3-0.12-0.42c-0.08-0.14-0.23-0.21-0.45-0.21c-0.64 0-1.31 0.3-2.01 0.9c-0.68 0.58-1.34 1.33-1.98 2.25c-0.64 0.92-1.22 1.88-1.74 2.88c-0.5 1-0.89 1.92-1.17 2.76c-0.32-0.08-0.54-0.2-0.66-0.36c-0.1-0.18-0.15-0.37-0.15-0.57c0-0.32 0.04-0.63 0.12-0.93c0.1-0.3 0.25-0.67 0.45-1.11c0.2-0.44 0.46-1 0.78-1.68c0.32-0.7 0.7-1.6 1.14-2.7c0.06-0.16 0.1-0.3 0.12-0.42c0.02-0.12 0.03-0.23 0.03-0.33c0-0.46-0.19-0.69-0.57-0.69c-0.48 0-0.97 0.2-1.47 0.6c-0.5 0.38-0.99 0.89-1.47 1.53c-0.46 0.64-0.9 1.33-1.32 2.07c-0.42 0.74-0.8 1.47-1.14 2.19c-0.34 0.7-0.62 1.31-0.84 1.83c-0.2 0.46-0.44 0.76-0.72 0.9c-0.28 0.12-0.55 0.18-0.81 0.18c-0.08 0-0.18 0-0.3 0c-0.1-0.02-0.2-0.03-0.3-0.03c0.34-0.68 0.69-1.41 1.06-2.19c-0.34 0.47-0.73 0.93-1.18 1.38c-0.26 0.26-0.56 0.49-0.9 0.69c-0.34 0.2-0.72 0.3-1.14 0.3c-0.6 0-1.06-0.18-1.38-0.54zm23.91-0.96c0.46-0.42 0.9-0.92 1.32-1.5c0.44-0.6 0.83-1.17 1.17-1.71c0.36-0.56 0.64-0.99 0.84-1.29c0.42-0.66 0.81-1.21 1.17-1.65c0.36-0.44 0.92-0.78 1.68-1.02c0.04 0 0.07 0 0.09 0c0.04-0.02 0.08-0.03 0.12-0.03c-0.18-0.28-0.48-0.49-0.9-0.63c-0.42-0.14-0.83-0.21-1.23-0.21c-0.62 0-1.22 0.17-1.8 0.51c-0.58 0.34-1.11 0.77-1.59 1.29c-0.46 0.54-0.91 1.13-1.35 1.77c-0.44 0.64-0.8 1.29-1.08 1.95c-0.26 0.66-0.39 1.29-0.39 1.89c0 0.32 0.05 0.61 0.15 0.87c0.12 0.24 0.31 0.36 0.57 0.36c0.38 0 0.79-0.2 1.23-0.6zm10.77-0.3c0.24-0.44 0.42-0.91 0.54-1.41c0.16-0.6 0.25-1.18 0.27-1.74c0.04-0.58 0.06-1.09 0.06-1.53v-0.93c0-0.42 0.05-0.85 0.15-1.29c0.12-0.46 0.28-0.8 0.48-1.02c-0.26 0.06-0.58 0.29-0.96 0.69c-0.38 0.38-0.76 0.83-1.14 1.35c-0.38 0.52-0.73 1.04-1.05 1.56c-0.3 0.52-0.53 0.95-0.69 1.29c0.38-0.02 0.64 0.09 0.78 0.33c0.14 0.22 0.18 0.38 0.12 0.48c-0.16-0.04-0.27-0.06-0.33-0.06c-0.3 0-0.58 0.11-0.84 0.33c-0.26 0.2-0.48 0.5-0.66 0.9c-0.18 0.38-0.27 0.75-0.27 1.11c0 0.48 0.14 0.83 0.42 1.05c0.28 0.22 0.61 0.33 0.99 0.33c0.44 0 0.84-0.12 1.2-0.36c0.4-0.28 0.71-0.64 0.93-1.08zm7.95 4.26c-0.42-0.06-0.81-0.19-1.17-0.39c-0.34-0.2-0.51-0.52-0.51-0.96c0-0.24 0.06-0.43 0.18-0.57c0.08-0.1 0.16-0.15 0.24-0.15c0.08 0 0.11 0.05 0.09 0.15c-0.08 0.3 0.02 0.59 0.3 0.87c0.3 0.26 0.59 0.43 0.87 0.51c0.32 0.08 0.66 0.12 1.02 0.12c0.78 0 1.5-0.2 2.16-0.6c0.68-0.4 1.28-0.9 1.8-1.5c-0.74-0.52-1.4-1.17-1.98-1.95c-0.56-0.78-0.84-1.66-0.84-2.64c0-0.3 0.03-0.6 0.09-0.9c0.22-1.08 0.77-1.92 1.65-2.52c0.46-0.32 0.98-0.48 1.56-0.48c0.38 0 0.72 0.07 1.02 0.21c0.32 0.12 0.54 0.27 0.66 0.45v0.03c0 0.08-0.04 0.16-0.12 0.24c-0.08 0.06-0.14 0.07-0.18 0.03c-0.14-0.26-0.41-0.39-0.81-0.39c-0.22 0-0.46 0.05-0.72 0.15c-0.26 0.08-0.5 0.23-0.72 0.45c-0.26 0.22-0.47 0.5-0.63 0.84c-0.16 0.32-0.29 0.66-0.39 1.02c-0.12 0.42-0.18 0.83-0.18 1.23c0 0.8 0.19 1.52 0.57 2.16c0.38 0.64 0.85 1.19 1.41 1.65c0.72-0.9 1.39-1.92 2.01-3.06c0.64-1.14 1.22-2.25 1.74-3.33c0.54-1.1 1.02-2.02 1.44-2.76c1.56-2.74 3.06-4.86 4.5-6.36c1.46-1.52 2.81-2.28 4.05-2.28c0.26 0 0.51 0.03 0.75 0.09c0.08 0.02 0.1 0.07 0.06 0.15c-0.04 0.08-0.1 0.11-0.18 0.09c-0.08-0.02-0.16-0.03-0.24-0.03c-0.06-0.02-0.13-0.03-0.21-0.03c-0.6 0-1.25 0.3-1.95 0.9c-0.7 0.58-1.42 1.39-2.16 2.43c-0.74 1.02-1.48 2.2-2.22 3.54c0.26-0.16 0.56-0.27 0.9-0.33c0.36-0.08 0.73-0.12 1.11-0.12c0.58 0 1.16 0.06 1.74 0.18c0.6 0.12 1.1 0.26 1.5 0.42c0.9-0.7 1.62-1.57 2.16-2.61c0.56-1.04 0.84-2.04 0.84-3c0-0.96-0.25-1.73-0.75-2.31c-0.5-0.58-1.13-1.02-1.89-1.32c-0.76-0.3-1.56-0.5-2.4-0.6c-0.84-0.1-1.61-0.15-2.31-0.15c-1.12 0-2.24 0.12-3.36 0.36c-1.1 0.24-2.12 0.59-3.06 1.05c-0.94 0.44-1.74 0.98-2.4 1.62c-0.54 0.52-1.05 1.21-1.53 2.07c-0.48 0.86-0.72 1.73-0.72 2.61c0 0.36 0.06 0.71 0.18 1.05c0.2 0.56 0.56 1 1.08 1.32c0.52 0.3 1.12 0.45 1.8 0.45c0.26 0 0.53-0.03 0.81-0.09c0.28-0.06 0.56-0.13 0.84-0.21h0.06c0.06 0 0.09 0.03 0.09 0.09c0 0.08-0.05 0.14-0.15 0.18c-0.54 0.18-1.1 0.27-1.68 0.27c-0.68 0-1.32-0.13-1.92-0.39c-0.6-0.28-1.09-0.69-1.47-1.23c-0.38-0.54-0.57-1.21-0.57-2.01c0-0.62 0.08-1.19 0.24-1.71c0.18-0.52 0.42-1.01 0.72-1.47c0.66-0.98 1.59-1.79 2.79-2.43c1.2-0.64 2.53-1.12 3.99-1.44c1.46-0.32 2.91-0.48 4.35-0.48c0.68 0 1.46 0.05 2.34 0.15c0.9 0.1 1.79 0.29 2.67 0.57c0.88 0.26 1.65 0.64 2.31 1.14c0.68 0.5 1.15 1.14 1.41 1.92c0.12 0.38 0.18 0.79 0.18 1.23c0 0.8-0.2 1.61-0.6 2.43c-0.4 0.8-0.9 1.5-1.5 2.1c-0.46 0.5-1.02 0.94-1.68 1.32c0.94 0.46 1.64 1.09 2.1 1.89c0.46 0.78 0.69 1.62 0.69 2.52c0 0.94-0.24 1.88-0.72 2.82c-0.48 0.94-1.19 1.79-2.13 2.55c-0.92 0.76-2.07 1.34-3.45 1.74c-0.64 0.18-1.33 0.32-2.07 0.42c-0.72 0.1-1.46 0.15-2.22 0.15c-0.78 0-1.56-0.06-2.34-0.18c-0.78-0.12-1.53-0.31-2.25-0.57c-0.12-0.04-0.25-0.09-0.39-0.15c-0.14-0.06-0.27-0.13-0.39-0.21c-1.08 0.96-2.25 1.59-3.51 1.89c-0.48 0.12-0.96 0.18-1.44 0.18c-0.22 0-0.54-0.03-0.96-0.09zm16.02-12.12c0.6-0.22 1.16-0.52 1.68-0.9c-0.38-0.24-0.81-0.4-1.29-0.48c-0.48-0.1-1.03-0.15-1.65-0.15c-0.58 0-1.04 0.12-1.38 0.36c-0.34 0.24-0.51 0.49-0.51 0.75c0 0.2 0.1 0.37 0.3 0.51c0.22 0.14 0.56 0.21 1.02 0.21c0.64 0 1.25-0.1 1.83-0.3zm1.95 8.37c0.7-0.74 1.23-1.55 1.59-2.43c0.36-0.88 0.54-1.74 0.54-2.58c0-0.76-0.15-1.47-0.45-2.13c-0.28-0.66-0.72-1.21-1.32-1.65c-0.62 0.3-1.3 0.55-2.04 0.75c-0.72 0.2-1.46 0.3-2.22 0.3c-0.56 0-0.98-0.07-1.26-0.21c-0.28-0.16-0.47-0.32-0.57-0.48c-0.26 0.5-0.51 1.02-0.75 1.56c-0.24 0.54-0.49 1.08-0.75 1.62c-0.52 1.08-1.15 2.22-1.89 3.42c-0.72 1.2-1.57 2.27-2.55 3.21c0.12 0.08 0.24 0.15 0.36 0.21c0.12 0.04 0.24 0.08 0.36 0.12c0.66 0.24 1.36 0.42 2.1 0.54c0.74 0.12 1.48 0.18 2.22 0.18c0.78 0 1.52-0.06 2.22-0.18c0.72-0.14 1.34-0.31 1.86-0.51c1.02-0.44 1.87-1.02 2.55-1.74zm6.12 0.45c-0.24-0.26-0.41-0.57-0.51-0.93c-0.1-0.36-0.15-0.73-0.15-1.11c0-0.48 0.06-0.96 0.18-1.44c0.12-0.5 0.27-0.96 0.45-1.38c0.28-0.66 0.65-1.32 1.11-1.98c0.46-0.68 1.01-1.25 1.65-1.71c0.66-0.46 1.38-0.69 2.16-0.69c0.52 0 0.93 0.13 1.23 0.39c0.3 0.26 0.45 0.66 0.45 1.2c0 0.62-0.19 1.25-0.57 1.89c-0.38 0.62-0.86 1.14-1.44 1.56c-0.58 0.42-1.18 0.63-1.8 0.63c-0.56 0-1.05-0.2-1.47-0.6c-0.12 0.32-0.22 0.68-0.3 1.08c-0.08 0.38-0.12 0.77-0.12 1.17c0 0.62 0.12 1.16 0.36 1.62c0.26 0.46 0.72 0.69 1.38 0.69c0.48 0 0.94-0.12 1.38-0.36c0.46-0.26 0.87-0.57 1.23-0.93c0.4-0.42 0.78-0.87 1.14-1.35c0.32-0.43 0.64-0.93 0.95-1.49c0.01-0.03 0.03-0.06 0.04-0.1c0.36-0.84 0.83-1.63 1.41-2.37c0.6-0.76 1.26-1.41 1.98-1.95c0.42-0.3 0.93-0.54 1.53-0.72c0.62-0.2 1.24-0.3 1.86-0.3c0.7 0 1.31 0.11 1.83 0.33c0.54 0.2 0.91 0.49 1.11 0.87c-0.42 0.54-0.85 1.21-1.29 2.01c-0.44 0.78-0.82 1.49-1.14 2.13c-0.22 0.44-0.46 0.99-0.72 1.65c-0.26 0.64-0.39 1.19-0.39 1.65c0 0.2 0.05 0.4 0.15 0.6c0.1 0.2 0.29 0.3 0.57 0.3c0.32 0 0.63-0.12 0.93-0.36c0.3-0.24 0.55-0.48 0.75-0.72c0.46-0.5 0.88-1.05 1.26-1.65c0.2-0.32 0.4-0.65 0.61-0.99c0.26-0.71 0.56-1.39 0.89-2.04c0.36-0.72 0.65-1.28 0.87-1.68c0.44-0.74 0.88-1.2 1.32-1.38c0.46-0.18 1.02-0.27 1.68-0.27c-0.2 0.06-0.46 0.3-0.78 0.72c-0.32 0.4-0.66 0.9-1.02 1.5c-0.34 0.6-0.67 1.25-0.99 1.95c-0.3 0.68-0.55 1.35-0.75 2.01c-0.18 0.64-0.27 1.19-0.27 1.65c0 0.34 0.06 0.62 0.18 0.84c0.14 0.22 0.35 0.33 0.63 0.33c0.24 0 0.52-0.09 0.84-0.27c0.32-0.2 0.61-0.44 0.87-0.72c0.88-0.98 1.59-2.05 2.13-3.21c0.56-1.18 1.18-2.35 1.86-3.51c0.44-0.74 0.88-1.2 1.32-1.38c0.46-0.18 1.02-0.27 1.68-0.27c-0.2 0.06-0.47 0.31-0.81 0.75c-0.34 0.42-0.7 0.95-1.08 1.59c-0.36 0.64-0.7 1.33-1.02 2.07c-0.32 0.72-0.59 1.42-0.81 2.1c-0.2 0.68-0.3 1.26-0.3 1.74c0 0.32 0.06 0.59 0.18 0.81c0.14 0.2 0.34 0.3 0.6 0.3c0.24 0 0.52-0.1 0.84-0.3c0.32-0.2 0.61-0.43 0.87-0.69c0.46-0.5 0.88-1.05 1.26-1.65c0.38-0.6 0.76-1.24 1.14-1.92c0.01-0.02 0.03-0.03 0.04-0.05c0.18-0.43 0.36-0.84 0.53-1.21c0.16-0.32 0.37-0.75 0.63-1.29c0.28-0.56 0.58-1.11 0.9-1.65h-1.41c-0.06 0-0.09-0.05-0.09-0.15c0-0.08 0.03-0.16 0.09-0.24c0.06-0.1 0.13-0.15 0.21-0.15c0.56 0 0.98-0.05 1.26-0.15c0.28-0.1 0.52-0.24 0.72-0.42c0.32-0.28 0.63-0.64 0.93-1.08c0.32-0.44 0.63-0.82 0.93-1.14c0.22-0.28 0.49-0.49 0.81-0.63c0.34-0.14 0.56-0.19 0.66-0.15c-0.1 0.14-0.26 0.38-0.48 0.72c-0.22 0.34-0.45 0.71-0.69 1.11c-0.24 0.4-0.46 0.77-0.66 1.11c-0.2 0.34-0.33 0.57-0.39 0.69h1.98c0.06 0 0.09 0.02 0.09 0.06c0 0.08-0.05 0.17-0.15 0.27c-0.08 0.1-0.16 0.15-0.24 0.15h-1.95c-0.36 0.62-0.79 1.43-1.29 2.43c-0.48 0.98-0.91 1.93-1.29 2.85c-0.08 0.18-0.22 0.54-0.42 1.08c-0.18 0.54-0.27 1.04-0.27 1.5c0 0.3 0.06 0.55 0.18 0.75c0.14 0.2 0.37 0.3 0.69 0.3c0.34 0 0.71-0.12 1.11-0.36c0.4-0.26 0.71-0.52 0.93-0.78c0.46-0.5 0.88-1.05 1.26-1.65c0.37-0.58 0.73-1.19 1.1-1.85c0.23-0.44 0.43-0.82 0.58-1.15c0.26-0.52 0.55-1.06 0.87-1.62c0.32-0.58 0.69-1.13 1.11-1.65c0.28-0.3 0.58-0.52 0.9-0.66c0.34-0.16 0.67-0.24 0.99-0.24c0.56 0 0.94 0.13 1.14 0.39c0.22 0.24 0.33 0.54 0.33 0.9c0 0.38-0.08 0.77-0.24 1.17c-0.16 0.4-0.32 0.75-0.48 1.05c-0.5 0.88-0.91 1.65-1.23 2.31c-0.32 0.64-0.6 1.26-0.84 1.86c-0.18 0.44-0.27 0.8-0.27 1.08c0 0.52 0.22 0.78 0.66 0.78c0.36 0 0.73-0.16 1.11-0.48c1.06-0.86 1.92-1.87 2.58-3.03c0.66-1.16 1.29-2.37 1.89-3.63c0.2-0.4 0.45-0.83 0.75-1.29c0.3-0.48 0.67-0.88 1.11-1.2c0.44-0.34 0.95-0.49 1.53-0.45c-0.28 0.26-0.62 0.74-1.02 1.44c-0.38 0.7-0.79 1.52-1.23 2.46c-0.42 0.94-0.84 1.92-1.26 2.94c-0.42 1.02-0.82 2-1.2 2.94c-0.36 0.92-0.67 1.7-0.93 2.34c0.54-0.22 1.17-0.55 1.89-0.99c0.74-0.46 1.43-1.05 2.07-1.77c0.46-0.48 0.87-1.02 1.23-1.62c0.38-0.62 0.76-1.27 1.14-1.95c0.06-0.08 0.12-0.12 0.18-0.12c0.08 0 0.12 0.06 0.12 0.18c0 0.1-0.02 0.18-0.06 0.24c-0.36 0.66-0.74 1.32-1.14 1.98c-0.4 0.66-0.89 1.28-1.47 1.86c-0.72 0.68-1.45 1.27-2.19 1.77c-0.72 0.48-1.4 0.83-2.04 1.05c-0.48 1.08-0.99 2.07-1.53 2.97c-0.52 0.9-1.12 1.65-1.8 2.25c-0.68 0.6-1.5 1.01-2.46 1.23c-0.32 0.08-0.64 0.12-0.96 0.12c-0.58 0-1.02-0.14-1.32-0.42c-0.3-0.28-0.45-0.63-0.45-1.05c0-0.36 0.12-0.74 0.36-1.14c0.24-0.42 0.6-0.79 1.08-1.11c0.62-0.42 1.18-0.76 1.68-1.02c0.52-0.26 1.08-0.51 1.68-0.75c0.6-0.26 1.35-0.6 2.25-1.02c0.1-0.22 0.21-0.48 0.33-0.78c0.12-0.3 0.32-0.8 0.6-1.5c0.28-0.7 0.69-1.74 1.23-3.12c-0.44 0.54-0.88 1.04-1.32 1.5c-0.44 0.46-0.8 0.82-1.08 1.08c-0.4 0.3-0.79 0.54-1.17 0.72c-0.36 0.16-0.72 0.24-1.08 0.24c-0.48 0-0.82-0.14-1.02-0.42c-0.18-0.28-0.27-0.61-0.27-0.99c0-0.32 0.04-0.65 0.12-0.99c0.1-0.34 0.21-0.66 0.33-0.96c0.28-0.7 0.58-1.36 0.9-1.98c0.34-0.64 0.67-1.3 0.99-1.98c0.08-0.16 0.19-0.42 0.33-0.78c0.16-0.36 0.24-0.69 0.24-0.99c0-0.34-0.15-0.51-0.45-0.51c-0.28 0-0.57 0.14-0.87 0.42c-0.28 0.26-0.53 0.56-0.75 0.9c-0.22 0.34-0.39 0.61-0.51 0.81c0 0-0.1 0.19-0.3 0.57c-0.18 0.38-0.42 0.85-0.72 1.41c-0.28 0.54-0.56 1.04-0.86 1.52c-0.21 0.36-0.44 0.73-0.67 1.09c-0.4 0.66-0.89 1.28-1.47 1.86c-0.26 0.26-0.61 0.5-1.05 0.72c-0.44 0.2-0.87 0.3-1.29 0.3c-0.5 0-0.95-0.14-1.35-0.42c-0.38-0.3-0.57-0.78-0.57-1.44c0-0.44 0.07-0.91 0.2-1.41c-0.08 0.13-0.15 0.26-0.23 0.39c-0.4 0.66-0.89 1.28-1.47 1.86c-0.32 0.32-0.7 0.59-1.14 0.81c-0.42 0.2-0.84 0.26-1.26 0.18c-0.56-0.1-0.96-0.32-1.2-0.66c-0.24-0.36-0.36-0.79-0.36-1.29c0-0.4 0.06-0.82 0.18-1.26c-0.24 0.38-0.5 0.76-0.78 1.14c-0.26 0.38-0.56 0.74-0.9 1.08c-0.28 0.28-0.62 0.52-1.02 0.72c-0.38 0.18-0.77 0.27-1.17 0.27c-0.62 0-1.07-0.18-1.35-0.54c-0.26-0.36-0.39-0.8-0.39-1.32c0-0.32 0.03-0.65 0.09-0.99c-0.42 0.66-0.92 1.28-1.5 1.86c-0.28 0.28-0.61 0.52-0.99 0.72c-0.38 0.2-0.75 0.3-1.11 0.3c-0.64 0-1.08-0.2-1.32-0.6c-0.24-0.42-0.36-0.88-0.36-1.38c0-0.1 0.01-0.27 0.03-0.51c0.04-0.26 0.08-0.5 0.12-0.72c-0.28 0.38-0.62 0.8-1.02 1.26c-0.38 0.46-0.77 0.85-1.17 1.17c-0.64 0.52-1.22 0.78-1.74 0.78c-0.5 0-0.89-0.21-1.17-0.63c-0.26-0.42-0.39-0.95-0.39-1.59c0-0.34 0.03-0.68 0.09-1.02c-0.14 0.22-0.29 0.44-0.45 0.66c-0.4 0.54-0.81 1.01-1.23 1.41c-0.38 0.36-0.79 0.65-1.23 0.87c-0.44 0.22-0.95 0.33-1.53 0.33c-1.16 0-1.98-0.3-2.46-0.9zm1.92-4.17c0.2 0.08 0.4 0.12 0.6 0.12c0.48 0 0.98-0.18 1.5-0.54c0.52-0.38 0.94-0.82 1.26-1.32c0.14-0.22 0.26-0.51 0.36-0.87c0.12-0.36 0.18-0.7 0.18-1.02c0-0.28-0.06-0.52-0.18-0.72c-0.1-0.22-0.31-0.33-0.63-0.33c-0.36 0-0.79 0.22-1.29 0.66c-0.48 0.44-0.94 1.01-1.38 1.71c-0.14 0.24-0.3 0.52-0.48 0.84c-0.16 0.32-0.3 0.66-0.42 1.02c0.14 0.2 0.3 0.35 0.48 0.45zm8.34 3.51c0.46-0.42 0.9-0.92 1.32-1.5c0.44-0.6 0.83-1.17 1.17-1.71c0.36-0.56 0.64-0.99 0.84-1.29c0.42-0.66 0.81-1.21 1.17-1.65c0.36-0.44 0.92-0.78 1.68-1.02c0.04 0 0.07 0 0.09 0c0.04-0.02 0.08-0.03 0.12-0.03c-0.18-0.28-0.48-0.49-0.9-0.63c-0.42-0.14-0.83-0.21-1.23-0.21c-0.62 0-1.22 0.17-1.8 0.51c-0.58 0.34-1.11 0.77-1.59 1.29c-0.46 0.54-0.91 1.13-1.35 1.77c-0.44 0.64-0.8 1.29-1.08 1.95c-0.26 0.66-0.39 1.29-0.39 1.89c0 0.32 0.05 0.61 0.15 0.87c0.12 0.24 0.31 0.36 0.57 0.36c0.38 0 0.79-0.2 1.23-0.6zm25.2 9.18c0.72-0.22 1.34-0.6 1.86-1.14c0.52-0.56 0.97-1.2 1.35-1.92c0.4-0.72 0.74-1.44 1.02-2.16c-0.64 0.34-1.44 0.7-2.4 1.08c-0.96 0.36-1.87 0.86-2.73 1.5c-0.38 0.3-0.67 0.61-0.87 0.93c-0.2 0.32-0.3 0.62-0.3 0.9c0 0.28 0.1 0.51 0.3 0.69c0.2 0.18 0.49 0.27 0.87 0.27c0.12 0 0.25-0.01 0.39-0.03c0.16-0.02 0.33-0.06 0.51-0.12z" />
</svg>